<svg xmlns="http://www.w3.org/2000/svg" width="247.999" height="90.844" viewBox="0 0 247.999 90.844">
  <g id="Groupe_14889" data-name="Groupe 14889" transform="translate(-9.986 -4.069)">
    <path id="Tracé_14961" data-name="Tracé 14961" d="M84.583,99.249H81.519v9.726h1.226v-4.641h1.807c1.639,0,2.987-.827,2.987-2.557C87.539,100.015,86.221,99.249,84.583,99.249Zm-.368,4.7h-1.47V99.724H84.23a2,2,0,0,1,2.007,2.1A2.094,2.094,0,0,1,84.215,103.951Z" transform="translate(-10.684 -14.216)" fill="#fff"/>
    <path id="Tracé_14962" data-name="Tracé 14962" d="M94.136,99.141l-3.707,9.818h.69l1.21-3.294h3.8l1.333,3.294h1.379l-4.166-9.818Zm-1.624,6.034,1.655-4.533,1.791,4.533Z" transform="translate(-12.015 -14.2)" fill="#fff"/>
    <path id="Tracé_14963" data-name="Tracé 14963" d="M110.6,101.78c0-1.763-1.3-2.512-2.941-2.512h-3.078v9.71H105.8v-4.641h.628a.79.79,0,0,1,.736.428l2.649,4.213h1.578l-3.094-4.733A2.534,2.534,0,0,0,110.6,101.78Zm-4.794,2.174V99.742h1.486a2.03,2.03,0,0,1,2.006,2.082,2.094,2.094,0,0,1-2.021,2.13Z" transform="translate(-14.128 -14.219)" fill="#fff"/>
    <path id="Tracé_14964" data-name="Tracé 14964" d="M116.494,108.978h1.225V103.8h2.986v-.521h-2.986V99.834h4.12v-.567h-5.345Z" transform="translate(-15.908 -14.218)" fill="#fff"/>
    <path id="Tracé_14965" data-name="Tracé 14965" d="M133.23,105.483c0,2.175-.9,3.14-2.573,3.14-1.746,0-2.589-.766-2.589-3.155V99.249h-1.226v6.6c0,2.2,1.425,3.246,3.814,3.246,2.526,0,3.813-1.21,3.813-3.431V99.249h-1.225Z" transform="translate(-17.453 -14.216)" fill="#fff"/>
    <path id="Tracé_14966" data-name="Tracé 14966" d="M145.715,107.459l-3.6-8.21h-1.287v9.726h.643v-8.1l3.614,8.209h.582l3.569-8.577v8.47h1.24V99.249h-1.44Z" transform="translate(-19.542 -14.216)" fill="#fff"/>
    <path id="Tracé_14967" data-name="Tracé 14967" d="M161.19,103.47l-1.364-.674c-1.1-.535-1.362-1.026-1.362-1.838,0-.948.642-1.362,1.638-1.362a2.441,2.441,0,0,1,1.96,1.24c.061.092.2.168.292.092l.49-.475a.237.237,0,0,0,0-.322,3.739,3.739,0,0,0-2.649-1.026c-1.686,0-2.926.781-2.926,2.374a2.508,2.508,0,0,0,1.638,2.343l1.563.8a2.223,2.223,0,0,1,1.532,2.16,1.761,1.761,0,0,1-1.884,1.761,4.226,4.226,0,0,1-2.726-.949l-.4.521a4.757,4.757,0,0,0,2.895,1c2.16-.015,3.216-1.134,3.216-2.773A3.022,3.022,0,0,0,161.19,103.47Z" transform="translate(-21.956 -14.194)" fill="#fff"/>
    <path id="Tracé_14968" data-name="Tracé 14968" d="M181.732,101.78c0-1.763-1.3-2.512-2.941-2.512h-3.078v9.71h1.225v-4.641h.629a.789.789,0,0,1,.735.428l2.649,4.213h1.579l-3.095-4.733A2.534,2.534,0,0,0,181.732,101.78Zm-4.794,2.174V99.742h1.485a2.031,2.031,0,0,1,2.008,2.082,2.1,2.1,0,0,1-2.022,2.13Z" transform="translate(-24.752 -14.219)" fill="#fff"/>
    <path id="Tracé_14969" data-name="Tracé 14969" d="M190.506,99.141l-3.706,9.818h.689l1.21-3.294h3.8l1.332,3.294h1.378l-4.166-9.818Zm-1.623,6.034,1.655-4.533,1.791,4.533Z" transform="translate(-26.408 -14.2)" fill="#fff"/>
    <path id="Tracé_14970" data-name="Tracé 14970" d="M206.967,101.78c0-1.763-1.3-2.512-2.941-2.512h-3.078v9.71h1.227v-4.641h.628a.788.788,0,0,1,.734.428l2.65,4.213h1.578l-3.095-4.733A2.533,2.533,0,0,0,206.967,101.78Zm-4.793,2.174V99.742h1.485a2.03,2.03,0,0,1,2.006,2.082,2.094,2.094,0,0,1-2.021,2.13Z" transform="translate(-28.521 -14.219)" fill="#fff"/>
    <path id="Tracé_14971" data-name="Tracé 14971" d="M214.09,103.785h3.384v-.49H214.09V99.819h4.426v-.552h-5.652v9.71h6v-.521l-4.778-.015Z" transform="translate(-30.301 -14.218)" fill="#fff"/>
    <path id="Tracé_14972" data-name="Tracé 14972" d="M228.311,103.47l-1.364-.674c-1.1-.535-1.362-1.026-1.362-1.838,0-.948.643-1.362,1.638-1.362a2.441,2.441,0,0,1,1.96,1.24c.062.092.2.168.292.092l.49-.475a.236.236,0,0,0,0-.322,3.739,3.739,0,0,0-2.649-1.026c-1.686,0-2.926.781-2.926,2.374a2.508,2.508,0,0,0,1.638,2.343l1.563.8a2.223,2.223,0,0,1,1.532,2.16,1.76,1.76,0,0,1-1.884,1.761,4.226,4.226,0,0,1-2.726-.949l-.4.521a4.757,4.757,0,0,0,2.895,1c2.16-.015,3.216-1.134,3.216-2.773A3.021,3.021,0,0,0,228.311,103.47Z" transform="translate(-31.981 -14.194)" fill="#fff"/>
    <path id="Tracé_14973" data-name="Tracé 14973" d="M30.208,80.791l-1.65.375.675,2.475,3-.75c5.026-1.2,10.652-3,10.652-16.427V24.159H36.808V70.891C36.808,78.316,34.859,79.817,30.208,80.791Z" transform="translate(-2.774 -3.001)" fill="#fff"/>
    <path id="Tracé_14974" data-name="Tracé 14974" d="M84.172,23.365c-12.6,0-23.253,9.977-23.253,24.453,0,13.877,10.351,24.528,23.253,24.528,12.676,0,23.253-10.051,23.253-24.679C107.425,33.192,96.848,23.365,84.172,23.365ZM84.1,70.022c-10.5,0-16.277-9.827-16.277-22.278S73.746,25.616,84.1,25.616c10.651,0,16.5,9.752,16.5,22.2S94.9,70.022,84.1,70.022Z" transform="translate(-7.607 -2.882)" fill="#fff"/>
    <path id="Tracé_14975" data-name="Tracé 14975" d="M142.288,65.552,124.81,24.07H118.06l20.628,48.307h4.126l21.6-48.307H160.74Z" transform="translate(-16.141 -2.987)" fill="#fff"/>
    <path id="Tra\é_14976" data-name="Tracé 14976" d="M198.365,23.365c-12.6,0-23.253,9.977-23.253,24.453,0,13.877,10.351,24.528,23.253,24.528,12.677,0,23.253-10.051,23.253-24.679C221.618,33.192,211.042,23.365,198.365,23.365Zm-.075,46.657c-10.5,0-16.276-9.827-16.276-22.278s5.924-22.128,16.276-22.128c10.652,0,16.5,9.752,16.5,22.2S209.092,70.022,198.29,70.022Z" transform="translate(-24.663 -2.882)" fill="#fff"/>
    <path id="Tracé_14977" data-name="Tracé 14977" d="M255.381,71.7V46.273l19.2-22.2h-4.426L254.03,42.824,238.5,24.07h-8.1L249.38,46.8V71.7Z" transform="translate(-32.92 -2.987)" fill="#fff"/>
    <path id="Tracé_14978" data-name="Tracé 14978" d="M9.986,4.069V91.15H64.733a.851.851,0,1,0,0-1.7H11.687V5.77h244.6V89.449H203.753a.851.851,0,1,0,0,1.7h54.233V4.069Z" fill="#fff"/>
  </g>
</svg>
