<svg xmlns="http://www.w3.org/2000/svg" width="200.543" height="73.46" viewBox="0 0 200.543 73.46">
  <g id="Groupe_14888" data-name="Groupe 14888" transform="translate(-9.986 -4.069)">
    <path id="Tracé_14961" data-name="Tracé 14961" d="M84,99.249H81.519v7.865h.991v-3.753h1.461c1.326,0,2.416-.669,2.416-2.068C86.387,99.868,85.322,99.249,84,99.249Zm-.3,3.8H82.51V99.633h1.2a1.613,1.613,0,0,1,1.623,1.7A1.693,1.693,0,0,1,83.7,103.052Z" transform="translate(-22.328 -29.709)" fill="#161615"/>
    <path id="Tracé_14962" data-name="Tracé 14962" d="M93.427,99.141l-3,7.939h.558l.978-2.663h3.071l1.078,2.663h1.115L93.86,99.141Zm-1.313,4.88,1.338-3.666,1.449,3.666Z" transform="translate(-25.109 -29.675)" fill="#161615"/>
    <path id="Tracé_14963" data-name="Tracé 14963" d="M109.445,101.3c0-1.425-1.053-2.031-2.378-2.031h-2.489v7.852h.991v-3.753h.508a.639.639,0,0,1,.6.346l2.142,3.407h1.276l-2.5-3.827A2.049,2.049,0,0,0,109.445,101.3Zm-3.877,1.758V99.651h1.2a1.641,1.641,0,0,1,1.622,1.684,1.693,1.693,0,0,1-1.634,1.722Z" transform="translate(-29.525 -29.715)" fill="#161615"/>
    <path id="Tracé_14964" data-name="Tracé 14964" d="M116.494,107.12h.991v-4.186H119.9v-.421h-2.415V99.726h3.331v-.458h-4.322Z" transform="translate(-33.244 -29.715)" fill="#161615"/>
    <path id="Tracé_14965" data-name="Tracé 14965" d="M132.008,104.29c0,1.759-.731,2.539-2.081,2.539-1.412,0-2.093-.62-2.093-2.551V99.249h-.991v5.339c0,1.783,1.152,2.625,3.084,2.625,2.043,0,3.084-.978,3.084-2.774V99.249h-.991Z" transform="translate(-36.475 -29.709)" fill="#161615"/>
    <path id="Tracé_14966" data-name="Tracé 14966" d="M144.78,105.888l-2.91-6.639h-1.041v7.865h.52v-6.551l2.923,6.638h.471l2.886-6.936v6.849h1V99.249h-1.164Z" transform="translate(-40.84 -29.709)" fill="#161615"/>
    <path id="Tracé_14967" data-name="Tracé 14967" d="M160.387,102.634l-1.1-.545c-.891-.433-1.1-.83-1.1-1.486,0-.767.519-1.1,1.325-1.1a1.974,1.974,0,0,1,1.585,1c.05.074.162.136.236.074l.4-.384a.192.192,0,0,0,0-.261,3.024,3.024,0,0,0-2.142-.83c-1.363,0-2.366.631-2.366,1.92a2.028,2.028,0,0,0,1.325,1.894l1.264.645a1.8,1.8,0,0,1,1.239,1.746,1.424,1.424,0,0,1-1.524,1.424,3.417,3.417,0,0,1-2.2-.768l-.322.421a3.847,3.847,0,0,0,2.341.805c1.746-.012,2.6-.917,2.6-2.242A2.444,2.444,0,0,0,160.387,102.634Z" transform="translate(-45.886 -29.664)" fill="#161615"/>
    <path id="Tracé_14968" data-name="Tracé 14968" d="M180.58,101.3c0-1.425-1.052-2.031-2.378-2.031h-2.489v7.852h.991v-3.753h.508a.638.638,0,0,1,.594.346l2.142,3.407h1.277l-2.5-3.827A2.049,2.049,0,0,0,180.58,101.3Zm-3.877,1.758V99.651h1.2a1.642,1.642,0,0,1,1.623,1.684,1.694,1.694,0,0,1-1.635,1.722Z" transform="translate(-51.729 -29.715)" fill="#161615"/>
    <path id="Tracé_14969" data-name="Tracé 14969" d="M189.8,99.141l-3,7.939h.557l.979-2.663h3.072l1.077,2.663H193.6l-3.368-7.939Zm-1.312,4.88,1.338-3.666,1.449,3.666Z" translate="translate(-55.189 -29.675)" fill="#161615"/>
    <path id="Tracé_14970" data-name="Tracé 14970" d="M205.815,101.3c0-1.425-1.052-2.031-2.378-2.031h-2.489v7.852h.992v-3.753h.508a.637.637,0,0,1,.594.346l2.143,3.407h1.276l-2.5-3.827A2.048,2.048,0,0,0,205.815,101.3Zm-3.875,1.758V99.651h1.2a1.642,1.642,0,0,1,1.622,1.684,1.693,1.693,0,0,1-1.634,1.722Z" transform="translate(-59.605 -29.715)" fill="#161615"/>
    <path id="Tracé_14971" data-name="Tracé 14971" d="M213.856,102.92h2.737v-.4h-2.737V99.714h3.579v-.446h-4.571v7.852h4.855V106.7l-3.864-.012Z" transform="translate(-63.325 -29.715)" fill="#161615"/>
    <path id="Tracé_14972" data-name="Tracé 14972" d="M227.508,102.634l-1.1-.545c-.891-.433-1.1-.83-1.1-1.486,0-.767.52-1.1,1.325-1.1a1.974,1.974,0,0,1,1.585,1c.05.074.162.136.236.074l.4-.384a.191.191,0,0,0,0-.261,3.024,3.024,0,0,0-2.142-.83c-1.363,0-2.366.631-2.366,1.92a2.028,2.028,0,0,0,1.325,1.894l1.264.645a1.8,1.8,0,0,1,1.239,1.746,1.424,1.424,0,0,1-1.524,1.424,3.417,3.417,0,0,1-2.2-.768l-.322.421a3.847,3.847,0,0,0,2.341.805c1.747-.012,2.6-.917,2.6-2.242A2.443,2.443,0,0,0,227.508,102.634Z" transform="translate(-66.836 -29.664)" fill="#161615"/>
    <path id="Tracé_14973" data-name="Tracé 14973" d="M29.892,69.954l-1.334.3.545,2,2.426-.607c4.065-.971,8.613-2.426,8.613-13.283V24.159H35.23V61.948C35.23,67.953,33.653,69.166,29.892,69.954Z" transform="translate(-5.797 -6.271)" fill="#161615"/>
    <path id="Tra\é_14974" data-name="Tracé 14974" d="M79.723,23.365c-10.191,0-18.8,8.068-18.8,19.774,0,11.222,8.371,19.835,18.8,19.835,10.251,0,18.8-8.128,18.8-19.956C98.526,31.311,89.973,23.365,79.723,23.365Zm-.061,37.729c-8.492,0-13.162-7.946-13.162-18.015s4.792-17.894,13.162-17.894c8.613,0,13.344,7.886,13.344,17.954S88.4,61.094,79.662,61.094Z" transform="translate(-15.898 -6.023)" fill="#161615"/>
    <path id="Tracé_14975" data-name="Tracé 14975" d="M137.652,57.614,123.519,24.07H118.06l16.68,39.063h3.336L155.546,24.07h-2.973Z" transform="translate(-33.733 -6.243)" fill="#161615"/>
    <path id="Tra\é_14976" data-name="Tracé 14976" d="M193.916,23.365c-10.19,0-18.8,8.068-18.8,19.774,0,11.222,8.371,19.835,18.8,19.835,10.251,0,18.8-8.128,18.8-19.956C212.719,31.311,204.167,23.365,193.916,23.365Zm-.061,37.729c-8.492,0-13.162-7.946-13.162-18.015s4.79-17.894,13.162-17.894c8.613,0,13.345,7.886,13.345,17.954S202.59,61.094,193.855,61.094Z" transform="translate(-51.541 -6.023)" fill="#161615"/>
    <path id="Tracé_14977" data-name="Tracé 14977" d="M250.6,62.588V42.025L266.129,24.07H262.55L249.509,39.235,236.952,24.07H230.4l15.347,18.379V62.588Z" transform="translate(-68.799 -6.243)" fill="#161615"/>
    <path id="Tracé_14978" data-name="Tra\é 14978" d="M9.986,4.069V74.487h44.27a.688.688,0,1,0,0-1.376H11.362V5.445H209.153V73.111H166.674a.688.688,0,0,0,0,1.376h43.855V4.069Z" fill="#161615"/>
  </g>
</svg>
